<svg xmlns="http://www.w3.org/2000/svg" viewBox="0 0 128 128">
  <rect width="128" height="128" rx="16" fill="#4285f4"/>
  <path d="M64 108c24.3 0 44-19.7 44-44S88.3 20 64 20 20 39.7 20 64s19.7 44 44 44zm0-8c-19.9 0-36-16.1-36-36s16.1-36 36-36 36 16.1 36 36-16.1 36-36 36z" fill="#fff"/>
  <path d="M90 64c0 14.36-11.64 26-26 26s-26-11.64-26-26 11.64-26 26-26 26 11.64 26 26z" fill="#fff"/>
  <path d="M71 48L57.5 79h-7l13.5-31h7z" fill="#4285f4"/>
  <path d="M77.5 69L64 38h-7l13.5 31h7z" fill="#4285f4"/>
</svg> 